<?xml version="1.0" standalone="no"?>
<!DOCTYPE svg PUBLIC "-//W3C//DTD SVG 20010904//EN"
 "http://www.w3.org/TR/2001/REC-SVG-20010904/DTD/svg10.dtd">
<svg version="1.0" xmlns="http://www.w3.org/2000/svg"
 width="824.000000pt" height="824.000000pt" viewBox="0 0 824.000000 824.000000"
 preserveAspectRatio="xMidYMid meet">
<metadata>
Created by potrace 1.14, written by Peter Selinger 2001-2017
</metadata>
<g transform="translate(0.000000,824.000000) scale(0.100000,-0.100000)"
fill="#000000" stroke="none">
<path d="M2060 7167 c-3 -3 -17 -7 -30 -9 -46 -6 -139 -59 -185 -105 -40 -39
-83 -106 -91 -138 -2 -5 -16 -48 -33 -95 -28 -77 -78 -255 -86 -305 -4 -25
-14 -82 -20 -115 -15 -84 -19 -159 -19 -360 0 -216 3 -270 25 -390 6 -30 12
-66 14 -80 1 -14 6 -36 10 -50 4 -14 8 -32 9 -40 10 -55 80 -274 107 -334 17
-38 17 -43 2 -66 -9 -14 -22 -32 -30 -40 -52 -57 -199 -273 -239 -353 l-25
-48 -46 33 c-76 55 -230 210 -288 292 -11 16 -25 33 -30 40 -31 34 -154 246
-160 276 -1 3 -9 22 -18 44 -9 21 -17 40 -17 42 0 1 -5 15 -12 31 -13 34 -12
30 -38 123 -21 79 -27 103 -36 160 -8 53 -58 150 -101 195 -113 120 -298 155
-446 84 -134 -64 -219 -189 -225 -334 -2 -27 5 -86 13 -130 9 -44 17 -87 19
-95 8 -44 19 -86 24 -95 4 -5 7 -16 9 -24 17 -115 227 -579 277 -613 6 -4 8
-8 3 -8 -7 0 68 -109 117 -171 12 -14 32 -41 46 -59 14 -18 35 -44 48 -57 29
-29 25 -29 -32 3 -203 113 -454 21 -551 -201 -22 -52 -28 -199 -10 -252 20
-56 106 -228 155 -308 38 -63 155 -232 170 -245 3 -3 30 -34 60 -70 85 -101
260 -268 333 -319 12 -8 28 -21 35 -28 7 -7 26 -20 42 -30 17 -9 30 -21 30
-25 0 -4 6 -8 14 -8 8 0 16 -3 18 -8 9 -22 411 -234 468 -247 3 0 28 -9 55
-18 39 -13 53 -24 64 -49 66 -152 290 -459 456 -623 111 -111 163 -157 270
-243 6 -4 39 -28 75 -52 36 -25 67 -47 70 -50 5 -6 191 -118 235 -143 64 -35
275 -136 300 -143 6 -1 46 -17 90 -34 44 -18 85 -33 90 -34 6 -2 17 -6 25 -9
18 -7 159 -48 180 -52 8 -2 15 -4 15 -5 0 -2 21 -7 60 -15 17 -3 48 -11 70
-17 48 -12 46 -12 165 -31 221 -37 283 -41 565 -41 236 0 294 3 420 20 68 9
173 26 235 39 14 3 41 8 60 12 44 9 37 7 90 22 185 50 317 94 465 154 175 71
550 290 670 391 17 14 35 29 40 33 42 31 174 151 239 218 128 130 356 428 356
465 0 5 4 10 8 10 4 0 24 33 45 74 20 40 42 78 49 83 7 5 42 20 78 33 36 13
91 36 123 51 31 15 57 26 57 24 0 -2 19 8 43 21 23 13 56 30 73 38 46 22 199
118 202 127 2 5 10 9 18 9 8 0 14 5 14 10 0 6 5 10 11 10 6 0 58 38 115 85
140 116 270 246 354 355 19 25 37 47 40 50 14 12 120 171 150 225 19 33 37 62
40 65 4 3 15 26 26 52 10 27 22 48 27 48 4 0 7 5 7 12 0 6 12 36 26 67 21 43
28 74 30 136 5 147 -52 259 -181 353 -22 16 -92 43 -120 47 -17 2 -30 4 -30 5
0 1 -20 3 -45 4 -65 4 -208 -37 -225 -63 -3 -6 -11 -11 -16 -11 -6 0 14 28 44
63 52 60 131 164 152 199 6 9 30 50 55 90 25 40 68 119 96 175 44 86 59 120
79 173 1 3 5 12 8 20 31 70 94 280 112 375 2 11 7 31 10 45 66 277 -125 519
-398 505 -66 -3 -177 -39 -177 -57 0 -6 -3 -9 -6 -5 -3 3 -15 -3 -27 -13 -12
-10 -32 -27 -44 -38 -37 -31 -91 -130 -103 -186 -10 -50 -15 -75 -25 -117 -30
-140 -110 -336 -193 -474 -84 -142 -270 -350 -385 -433 l-45 -32 -26 46 c-14
26 -26 50 -26 55 0 5 -4 9 -10 9 -5 0 -10 5 -10 10 0 15 -107 173 -179 263
-61 77 -61 77 -46 107 9 17 13 30 9 30 -4 0 -2 6 4 13 6 6 10 14 10 17 1 3 6
19 12 35 7 17 13 37 15 45 2 8 10 34 19 58 8 23 15 43 14 45 0 1 6 27 15 57
16 56 44 191 51 245 14 104 19 131 24 139 3 5 -1 6 -8 1 -9 -5 -11 -4 -6 3 12
20 16 72 16 212 -1 206 -11 306 -50 500 -34 167 -118 424 -144 442 -6 4 -8 8
-4 8 10 0 -27 45 -72 88 -29 28 -80 62 -100 67 -5 2 -19 7 -65 24 -34 13 -129
13 -181 0 -137 -33 -239 -127 -283 -257 -32 -94 -28 -162 18 -300 40 -120 76
-256 86 -327 14 -98 13 -372 -1 -465 -8 -52 -17 -106 -19 -119 -6 -39 -21 -46
-52 -25 -80 53 -359 191 -468 231 -96 35 -235 83 -257 88 -12 2 -66 16 -118
30 -52 14 -111 28 -130 31 -19 3 -38 8 -41 10 -4 2 -27 6 -50 9 -24 3 -51 8
-60 10 -8 3 -37 7 -65 10 -27 2 -59 7 -71 9 -125 26 -667 26 -794 1 -13 -3
-46 -7 -74 -10 -27 -2 -61 -7 -75 -10 -14 -3 -41 -8 -60 -11 -19 -3 -66 -12
-104 -21 -37 -8 -73 -16 -80 -17 -6 -1 -20 -5 -31 -9 -11 -3 -31 -8 -45 -11
-50 -8 -258 -79 -380 -129 -130 -53 -341 -157 -410 -203 -46 -30 -55 -26 -65
26 -3 19 -8 44 -10 55 -38 204 -30 463 20 660 9 33 18 70 20 82 3 12 19 60 36
105 47 128 51 202 18 302 -20 59 -41 93 -90 147 -24 25 -93 79 -103 79 -2 0
-17 5 -33 12 -15 6 -35 13 -43 16 -25 7 -155 14 -160 9z m5458 -2929 c-7 -13
-19 -31 -27 -40 -8 -10 -11 -18 -7 -18 4 0 -5 -21 -20 -47 -15 -27 -37 -67
-49 -90 -50 -93 -145 -214 -251 -320 -61 -62 -116 -113 -122 -113 -5 0 -10 15
-10 34 0 19 -3 80 -7 135 -5 75 -4 101 5 101 36 0 309 201 425 312 39 37 71
68 73 68 1 0 -3 -10 -10 -22z m-6684 -93 c62 -57 211 -167 308 -228 48 -30 85
-57 82 -60 -6 -5 -11 -65 -15 -175 -1 -34 -6 -65 -11 -68 -18 -11 -241 228
-316 339 -40 59 -70 107 -66 107 4 0 0 8 -8 18 -17 19 -63 114 -60 124 1 3 -5
12 -13 18 -8 7 -15 17 -15 23 0 6 21 -9 46 -33 26 -25 56 -54 68 -65z"/>
</g>
</svg>
