<svg xmlns="http://www.w3.org/2000/svg" viewBox="0 0 994.28 304.48"><g id="acb7c9bf-ba72-4758-90f0-1c2b6d66637d" data-name="Layer 2"><g id="e803ddb1-1b27-4bde-8ddf-c86f8a3f7e17" data-name="Layer 1"><path d="M105.9,19.5a100,100,0,0,0,55.92,129.9" style="fill:none;stroke:#ff9200;stroke-linecap:round;stroke-miterlimit:10;stroke-width:39px"/><path d="M22,78a99.94,99.94,0,0,0,115.38,81.78" style="fill:none;stroke:#ff9200;stroke-linecap:round;stroke-miterlimit:10;stroke-width:39px"/><path d="M19.5,156.5A97.87,97.87,0,0,0,148.84,206" style="fill:none;stroke:#ff9200;stroke-linecap:round;stroke-miterlimit:10;stroke-width:39px"/><path d="M305.62,19.5A100,100,0,0,1,249.7,149.4" style="fill:none;stroke:#ff9200;stroke-linecap:round;stroke-miterlimit:10;stroke-width:39px"/><path d="M389.51,78a99.94,99.94,0,0,1-115.38,81.78" style="fill:none;stroke:#ff9200;stroke-linecap:round;stroke-miterlimit:10;stroke-width:39px"/><path d="M392,156.5A97.87,97.87,0,0,1,262.68,206" style="fill:none;stroke:#ff9200;stroke-linecap:round;stroke-miterlimit:10;stroke-width:39px"/><path d="M105.64,22.21a99.94,99.94,0,0,0,55.92,129.9" style="fill:none;stroke:#fff;stroke-linecap:round;stroke-miterlimit:10;stroke-width:4px"/><path d="M21.74,80.67a100,100,0,0,0,115.38,81.78" style="fill:none;stroke:#fff;stroke-linecap:round;stroke-miterlimit:10;stroke-width:4px"/><path d="M19.24,159.21a97.86,97.86,0,0,0,129.34,49.46" style="fill:none;stroke:#fff;stroke-linecap:round;stroke-miterlimit:10;stroke-width:4px"/><path d="M305.35,22.21a99.94,99.94,0,0,1-55.91,129.9" style="fill:none;stroke:#fff;stroke-linecap:round;stroke-miterlimit:10;stroke-width:4px"/><path d="M389.25,80.67a99.94,99.94,0,0,1-115.38,81.78" style="fill:none;stroke:#fff;stroke-linecap:round;stroke-miterlimit:10;stroke-width:4px"/><path d="M391.76,159.21a97.86,97.86,0,0,1-129.34,49.46" style="fill:none;stroke:#fff;stroke-linecap:round;stroke-miterlimit:10;stroke-width:4px"/><ellipse cx="205.76" cy="178.48" rx="145.5" ry="126" style="fill:#4cffdf"/><path d="M205.52,286.48c-44.94,0-86.28-13.31-119.07-35.63,26.32,32.44,69.86,53.63,119.11,53.63s92.89-21.24,119.2-53.74C292,273.13,250.54,286.48,205.52,286.48Z" style="fill:#31e2d9"/><ellipse cx="267.03" cy="173.09" rx="19.53" ry="26.95" style="fill:#005071"/><ellipse cx="144.49" cy="172.83" rx="19.53" ry="26.95" style="fill:#005071"/><text transform="translate(478.43 204.41)" style="font-size:151.7677001953125px;fill:#005071;font-family:FilsonSoftRegular, Filson Soft">a<tspan x="97.89" y="0" style="letter-spacing:-0.022997214628068797em">x</tspan><tspan x="182.42" y="0">ea</tspan><tspan x="370.91" y="0" style="letter-spacing:-0.017991105791852365em">s</tspan><tspan x="435.57" y="0" style="letter-spacing:-0.028994249892019583em">y</tspan></text></g></g></svg>